<svg xmlns="http://www.w3.org/2000/svg" xmlns:xlink="http://www.w3.org/1999/xlink" width="300" zoomAndPan="magnify" viewBox="0 0 224.87999 37.5" height="50" preserveAspectRatio="xMinYMin" version="1.0"><defs><g/></defs><g fill="#96bf47" fill-opacity="1"><g transform="translate(2.749495, 30.579324)"><g><path d="M 13.421875 0 L 13.421875 -11.46875 C 13.421875 -13.488281 13.273438 -15.144531 12.984375 -16.4375 C 12.691406 -17.726562 12.222656 -18.726562 11.578125 -19.4375 C 10.941406 -20.144531 10.101562 -20.632812 9.0625 -20.90625 C 8.019531 -21.1875 6.742188 -21.328125 5.234375 -21.328125 L 4.875 -21.328125 C 4.4375 -20.378906 3.929688 -19.71875 3.359375 -19.34375 C 2.796875 -18.976562 2.082031 -18.796875 1.21875 -18.796875 L 0.34375 -18.796875 L 1.703125 -24.890625 L 5.78125 -24.890625 C 8.832031 -24.890625 11.296875 -24.46875 13.171875 -23.625 C 15.054688 -22.789062 16.425781 -21.476562 17.28125 -19.6875 C 18.144531 -17.90625 18.578125 -15.582031 18.578125 -12.71875 L 18.578125 0 Z M 13.421875 0 "/></g></g></g><g fill="#96bf47" fill-opacity="1"><g transform="translate(24.290429, 30.579324)"><g><path d="M 11.78125 -25.34375 C 14.632812 -25.34375 16.722656 -24.609375 18.046875 -23.140625 C 19.367188 -21.679688 20.03125 -19.648438 20.03125 -17.046875 L 20.03125 -0.109375 L 14.875 -0.109375 L 14.875 -16.875 C 14.875 -18.226562 14.628906 -19.265625 14.140625 -19.984375 C 13.648438 -20.703125 12.816406 -21.0625 11.640625 -21.0625 C 10.429688 -21.0625 9.601562 -20.664062 9.15625 -19.875 C 8.71875 -19.082031 8.5 -18.070312 8.5 -16.84375 L 8.5 -0.109375 L 3.34375 -0.109375 L 3.34375 -17.125 C 3.34375 -18.75 3.617188 -20.175781 4.171875 -21.40625 C 4.734375 -22.632812 5.632812 -23.597656 6.875 -24.296875 C 8.125 -24.992188 9.757812 -25.34375 11.78125 -25.34375 Z M 11.78125 -25.34375 "/></g></g></g><g fill="#96bf47" fill-opacity="1"><g transform="translate(46.911886, 30.579324)"><g><path d="M 6.96875 0 L 6.96875 -5.1875 C 6.96875 -6.726562 6.75 -8.015625 6.3125 -9.046875 C 5.882812 -10.078125 5.359375 -11.070312 4.734375 -12.03125 C 4.097656 -12.976562 3.546875 -13.90625 3.078125 -14.8125 C 2.617188 -15.71875 2.390625 -16.894531 2.390625 -18.34375 C 2.390625 -20.476562 3.097656 -22.160156 4.515625 -23.390625 C 5.929688 -24.617188 7.835938 -25.234375 10.234375 -25.234375 C 12.742188 -25.234375 14.644531 -24.628906 15.9375 -23.421875 C 17.226562 -22.210938 17.875 -20.578125 17.875 -18.515625 C 17.875 -17.003906 17.546875 -15.734375 16.890625 -14.703125 C 16.242188 -13.679688 15.394531 -12.859375 14.34375 -12.234375 C 13.300781 -11.609375 12.203125 -11.132812 11.046875 -10.8125 C 11.410156 -10.039062 11.679688 -9.101562 11.859375 -8 C 12.035156 -6.894531 12.125 -5.757812 12.125 -4.59375 L 12.125 0 Z M 9.359375 -14.21875 C 10.390625 -14.539062 11.21875 -15.046875 11.84375 -15.734375 C 12.46875 -16.421875 12.78125 -17.3125 12.78125 -18.40625 C 12.78125 -19.175781 12.578125 -19.851562 12.171875 -20.4375 C 11.765625 -21.03125 11.117188 -21.328125 10.234375 -21.328125 C 9.566406 -21.328125 8.945312 -21.117188 8.375 -20.703125 C 7.800781 -20.285156 7.515625 -19.539062 7.515625 -18.46875 C 7.515625 -17.59375 7.710938 -16.8125 8.109375 -16.125 C 8.503906 -15.4375 8.921875 -14.800781 9.359375 -14.21875 Z M 0.34375 2.328125 L 1.296875 -1.78125 L 0.34375 -5.890625 L 1.5 -5.890625 C 2.40625 -5.890625 3.125 -5.65625 3.65625 -5.1875 C 4.195312 -4.726562 4.601562 -4.1875 4.875 -3.5625 L 9.0625 -3.5625 L 9.0625 0 L 4.875 0 C 4.601562 0.625 4.195312 1.164062 3.65625 1.625 C 3.125 2.09375 2.40625 2.328125 1.5 2.328125 Z M 0.34375 2.328125 "/></g></g></g><g fill="#96bf47" fill-opacity="1"><g transform="translate(65.873481, 30.579324)"><g/></g></g><g fill="#0b0b5b" fill-opacity="1"><g transform="translate(74.062135, 30.579324)"><g><path d="M 11.4375 0.488281 C 17.222656 0.488281 20.78125 -2.265625 20.78125 -6.867188 C 20.78125 -10.738281 18.234375 -13.039062 12.167969 -14.46875 C 8.4375 -15.339844 7.148438 -16.28125 7.148438 -17.78125 C 7.148438 -19.386719 8.578125 -20.363281 10.914062 -20.363281 C 13.457031 -20.363281 14.992188 -19.039062 14.992188 -16.839844 L 20.328125 -16.839844 C 20.328125 -21.757812 16.632812 -24.894531 10.84375 -24.894531 C 5.230469 -24.894531 1.742188 -22.140625 1.742188 -17.675781 C 1.742188 -13.703125 4.429688 -11.332031 10.144531 -10.113281 C 13.597656 -9.378906 15.167969 -8.367188 15.167969 -6.660156 C 15.167969 -5.019531 13.703125 -4.078125 11.402344 -4.078125 C 8.714844 -4.078125 6.972656 -5.4375 6.972656 -7.773438 L 1.535156 -7.773438 C 1.535156 -2.71875 5.300781 0.488281 11.4375 0.488281 Z M 11.4375 0.488281 "/></g></g></g><g fill="#0b0b5b" fill-opacity="1"><g transform="translate(96.404747, 30.579324)"><g><path d="M 2.929688 0 L 19.351562 0 L 19.351562 -4.707031 L 8.4375 -4.707031 L 8.4375 -10.042969 L 18.027344 -10.042969 L 18.027344 -14.679688 L 8.4375 -14.679688 L 8.4375 -19.734375 L 18.96875 -19.734375 L 18.96875 -24.40625 L 2.929688 -24.40625 Z M 2.929688 0 "/></g></g></g><g fill="#0b0b5b" fill-opacity="1"><g transform="translate(117.527409, 30.579324)"><g><path d="M 0.3125 0 L 6.242188 0 L 7.878906 -4.21875 L 17.574219 -4.21875 L 19.210938 0 L 25.140625 0 L 15.445312 -24.40625 L 10.007812 -24.40625 Z M 9.308594 -8.578125 L 12.726562 -17.503906 L 16.179688 -8.578125 Z M 9.308594 -8.578125 "/></g></g></g><g fill="#0b0b5b" fill-opacity="1"><g transform="translate(142.972196, 30.579324)"><g><path d="M 2.929688 0 L 8.472656 0 L 8.472656 -7.601562 L 12.132812 -7.601562 L 16.492188 0 L 22.90625 0 L 17.851562 -8.472656 C 20.78125 -9.761719 22.488281 -12.414062 22.488281 -16.003906 C 22.488281 -21.199219 18.933594 -24.40625 13.355469 -24.40625 L 2.929688 -24.40625 Z M 8.402344 -12.273438 L 8.402344 -19.664062 L 12.621094 -19.664062 C 15.339844 -19.664062 16.875 -18.339844 16.875 -15.96875 C 16.875 -13.597656 15.339844 -12.273438 12.621094 -12.273438 Z M 8.402344 -12.273438 "/></g></g></g><g fill="#0b0b5b" fill-opacity="1"><g transform="translate(167.51073, 30.579324)"><g><path d="M 14.121094 0.488281 C 20.535156 0.488281 25.523438 -3.417969 26.742188 -9.34375 L 21.023438 -9.34375 C 20.011719 -6.554688 17.433594 -4.777344 14.226562 -4.777344 C 10.078125 -4.777344 7.148438 -7.808594 7.148438 -12.203125 C 7.148438 -16.597656 10.113281 -19.628906 14.261719 -19.628906 C 17.363281 -19.628906 19.910156 -17.957031 20.851562 -15.273438 L 26.570312 -15.273438 C 25.175781 -21.128906 20.292969 -24.894531 14.085938 -24.894531 C 6.695312 -24.894531 1.5 -19.664062 1.5 -12.203125 C 1.5 -4.742188 6.695312 0.488281 14.121094 0.488281 Z M 14.121094 0.488281 "/></g></g></g><g fill="#0b0b5b" fill-opacity="1"><g transform="translate(195.639419, 30.579324)"><g><path d="M 18.027344 0 L 23.570312 0 L 23.570312 -24.40625 L 18.027344 -24.40625 L 18.027344 -15.027344 L 8.472656 -15.027344 L 8.472656 -24.40625 L 2.929688 -24.40625 L 2.929688 0 L 8.472656 0 L 8.472656 -9.832031 L 18.027344 -9.832031 Z M 18.027344 0 "/></g></g></g></svg>