<svg xmlns="http://www.w3.org/2000/svg" xmlns:xlink="http://www.w3.org/1999/xlink" width="300" zoomAndPan="magnify" viewBox="0 0 224.87999 74.999997" height="100" preserveAspectRatio="xMidYMid meet" version="1.0"><defs><g/></defs><g fill="#96bf47" fill-opacity="1"><g transform="translate(10.697703, 48.389998)"><g><path d="M 12.453125 0 L 12.453125 -10.640625 C 12.453125 -12.515625 12.316406 -14.046875 12.046875 -15.234375 C 11.773438 -16.429688 11.34375 -17.359375 10.75 -18.015625 C 10.15625 -18.679688 9.375 -19.140625 8.40625 -19.390625 C 7.4375 -19.648438 6.25 -19.78125 4.84375 -19.78125 L 4.53125 -19.78125 C 4.113281 -18.894531 3.640625 -18.28125 3.109375 -17.9375 C 2.585938 -17.59375 1.925781 -17.421875 1.125 -17.421875 L 0.328125 -17.421875 L 1.578125 -23.078125 L 5.359375 -23.078125 C 8.179688 -23.078125 10.46875 -22.6875 12.21875 -21.90625 C 13.96875 -21.132812 15.238281 -19.921875 16.03125 -18.265625 C 16.832031 -16.609375 17.234375 -14.453125 17.234375 -11.796875 L 17.234375 0 Z M 12.453125 0 "/></g></g></g><g fill="#96bf47" fill-opacity="1"><g transform="translate(30.677479, 48.389998)"><g><path d="M 10.59375 -23.328125 C 13.238281 -23.328125 15.175781 -22.644531 16.40625 -21.28125 C 17.632812 -19.925781 18.25 -18.039062 18.25 -15.625 L 18.25 0.078125 L 13.46875 0.078125 L 13.46875 -15.46875 C 13.46875 -16.71875 13.238281 -17.675781 12.78125 -18.34375 C 12.332031 -19.007812 11.5625 -19.34375 10.46875 -19.34375 C 9.34375 -19.34375 8.570312 -18.976562 8.15625 -18.25 C 7.75 -17.519531 7.546875 -16.582031 7.546875 -15.4375 L 7.546875 0.078125 L 2.765625 0.078125 L 2.765625 -15.6875 C 2.765625 -17.195312 3.019531 -18.523438 3.53125 -19.671875 C 4.050781 -20.816406 4.890625 -21.710938 6.046875 -22.359375 C 7.203125 -23.003906 8.71875 -23.328125 10.59375 -23.328125 Z M 10.59375 -23.328125 "/></g></g></g><g fill="#96bf47" fill-opacity="1"><g transform="translate(51.659478, 48.389998)"><g><path d="M 6.53125 0 L 6.53125 -4.8125 C 6.53125 -6.238281 6.328125 -7.429688 5.921875 -8.390625 C 5.523438 -9.347656 5.035156 -10.269531 4.453125 -11.15625 C 3.878906 -12.039062 3.375 -12.898438 2.9375 -13.734375 C 2.507812 -14.578125 2.296875 -15.664062 2.296875 -17 C 2.296875 -18.988281 2.953125 -20.550781 4.265625 -21.6875 C 5.578125 -22.832031 7.34375 -23.40625 9.5625 -23.40625 C 11.894531 -23.40625 13.65625 -22.84375 14.84375 -21.71875 C 16.039062 -20.601562 16.640625 -19.085938 16.640625 -17.171875 C 16.640625 -15.765625 16.335938 -14.585938 15.734375 -13.640625 C 15.140625 -12.691406 14.351562 -11.925781 13.375 -11.34375 C 12.40625 -10.757812 11.382812 -10.316406 10.3125 -10.015625 C 10.65625 -9.304688 10.90625 -8.441406 11.0625 -7.421875 C 11.226562 -6.398438 11.3125 -5.347656 11.3125 -4.265625 L 11.3125 0 Z M 8.765625 -13.1875 C 9.710938 -13.488281 10.472656 -13.957031 11.046875 -14.59375 C 11.628906 -15.226562 11.921875 -16.050781 11.921875 -17.0625 C 11.921875 -17.78125 11.734375 -18.410156 11.359375 -18.953125 C 10.984375 -19.503906 10.382812 -19.78125 9.5625 -19.78125 C 8.9375 -19.78125 8.359375 -19.585938 7.828125 -19.203125 C 7.304688 -18.816406 7.046875 -18.128906 7.046875 -17.140625 C 7.046875 -16.316406 7.226562 -15.585938 7.59375 -14.953125 C 7.957031 -14.316406 8.347656 -13.726562 8.765625 -13.1875 Z M 0.328125 2.171875 L 1.203125 -1.65625 L 0.328125 -5.46875 L 1.390625 -5.46875 C 2.234375 -5.46875 2.898438 -5.25 3.390625 -4.8125 C 3.890625 -4.382812 4.269531 -3.878906 4.53125 -3.296875 L 8.40625 -3.296875 L 8.40625 0 L 4.53125 0 C 4.269531 0.582031 3.890625 1.085938 3.390625 1.515625 C 2.898438 1.953125 2.234375 2.171875 1.390625 2.171875 Z M 0.328125 2.171875 "/></g></g></g><g fill="#000000" fill-opacity="1"><g transform="translate(69.243844, 48.389998)"><g/></g></g><g fill="#000000" fill-opacity="1"><g transform="translate(76.841329, 48.389998)"><g><path d="M 10.605469 0.453125 C 15.972656 0.453125 19.269531 -2.101562 19.269531 -6.371094 C 19.269531 -9.957031 16.910156 -12.09375 11.285156 -13.417969 C 7.824219 -14.226562 6.628906 -15.101562 6.628906 -16.488281 C 6.628906 -17.976562 7.953125 -18.882812 10.121094 -18.882812 C 12.480469 -18.882812 13.902344 -17.652344 13.902344 -15.617188 L 18.851562 -15.617188 C 18.851562 -20.175781 15.421875 -23.085938 10.054688 -23.085938 C 4.851562 -23.085938 1.617188 -20.53125 1.617188 -16.394531 C 1.617188 -12.707031 4.105469 -10.507812 9.410156 -9.375 C 12.609375 -8.699219 14.066406 -7.761719 14.066406 -6.175781 C 14.066406 -4.65625 12.707031 -3.78125 10.574219 -3.78125 C 8.082031 -3.78125 6.464844 -5.042969 6.464844 -7.210938 L 1.421875 -7.210938 C 1.421875 -2.523438 4.914062 0.453125 10.605469 0.453125 Z M 10.605469 0.453125 "/></g></g></g><g fill="#000000" fill-opacity="1"><g transform="translate(97.564686, 48.389998)"><g><path d="M 2.714844 0 L 17.945312 0 L 17.945312 -4.363281 L 7.824219 -4.363281 L 7.824219 -9.3125 L 16.714844 -9.3125 L 16.714844 -13.613281 L 7.824219 -13.613281 L 7.824219 -18.300781 L 17.589844 -18.300781 L 17.589844 -22.632812 L 2.714844 -22.632812 Z M 2.714844 0 "/></g></g></g><g fill="#000000" fill-opacity="1"><g transform="translate(117.156503, 48.389998)"><g><path d="M 0.289062 0 L 5.789062 0 L 7.308594 -3.914062 L 16.296875 -3.914062 L 17.816406 0 L 23.3125 0 L 14.324219 -22.632812 L 9.28125 -22.632812 Z M 8.632812 -7.953125 L 11.800781 -16.230469 L 15.003906 -7.953125 Z M 8.632812 -7.953125 "/></g></g></g><g fill="#000000" fill-opacity="1"><g transform="translate(140.757212, 48.389998)"><g><path d="M 2.714844 0 L 7.855469 0 L 7.855469 -7.046875 L 11.253906 -7.046875 L 15.292969 0 L 21.242188 0 L 16.554688 -7.855469 C 19.269531 -9.054688 20.855469 -11.511719 20.855469 -14.839844 C 20.855469 -19.660156 17.558594 -22.632812 12.382812 -22.632812 L 2.714844 -22.632812 Z M 7.792969 -11.382812 L 7.792969 -18.234375 L 11.703125 -18.234375 C 14.226562 -18.234375 15.648438 -17.007812 15.648438 -14.808594 C 15.648438 -12.609375 14.226562 -11.382812 11.703125 -11.382812 Z M 7.792969 -11.382812 "/></g></g></g><g fill="#000000" fill-opacity="1"><g transform="translate(163.517345, 48.389998)"><g><path d="M 13.09375 0.453125 C 19.042969 0.453125 23.667969 -3.167969 24.800781 -8.664062 L 19.496094 -8.664062 C 18.558594 -6.078125 16.167969 -4.429688 13.191406 -4.429688 C 9.34375 -4.429688 6.628906 -7.242188 6.628906 -11.316406 C 6.628906 -15.390625 9.375 -18.203125 13.222656 -18.203125 C 16.101562 -18.203125 18.460938 -16.652344 19.335938 -14.160156 L 24.636719 -14.160156 C 23.34375 -19.59375 18.816406 -23.085938 13.0625 -23.085938 C 6.207031 -23.085938 1.390625 -18.234375 1.390625 -11.316406 C 1.390625 -4.398438 6.207031 0.453125 13.09375 0.453125 Z M 13.09375 0.453125 "/></g></g></g><g fill="#000000" fill-opacity="1"><g transform="translate(189.607441, 48.389998)"><g><path d="M 16.714844 0 L 21.855469 0 L 21.855469 -22.632812 L 16.714844 -22.632812 L 16.714844 -13.9375 L 7.855469 -13.9375 L 7.855469 -22.632812 L 2.714844 -22.632812 L 2.714844 0 L 7.855469 0 L 7.855469 -9.117188 L 16.714844 -9.117188 Z M 16.714844 0 "/></g></g></g></svg>